<svg width="38" height="38" viewBox="0 0 38 38" fill="none" xmlns="http://www.w3.org/2000/svg">
<path d="M16.9867 4.21442C15.2375 5.47874 13.8233 6.57917 12.744 7.51571C11.6648 8.40542 10.5669 9.59951 9.45039 11.098C8.40833 12.5028 7.60818 13.9778 7.04994 15.5231C6.49169 17.0684 6.10092 19.0585 5.87762 21.4935H8.5572C10.8646 21.4935 12.6696 22.2193 13.9722 23.671C15.312 25.0758 15.9819 27.1596 15.9819 29.9224C15.9819 31.8891 15.3864 33.7388 14.1955 35.4713C13.0418 37.1571 11.4415 38 9.39456 38C6.19396 38 3.90516 36.6888 2.52815 34.0665C1.15115 31.3974 0.462646 27.9088 0.462646 23.6007C0.462646 20.557 0.983675 17.7942 2.02573 15.3124C3.06779 12.7837 4.33314 10.536 5.8218 8.56932C7.34767 6.55576 8.96658 4.84658 10.6785 3.44177C12.3905 2.03697 13.8233 0.88971 14.977 0L16.9867 4.21442ZM37.6418 4.21442C35.8926 5.47874 34.4784 6.57917 33.3991 7.51571C32.3198 8.40542 31.2219 9.59951 30.1054 11.098C29.0262 12.5496 28.2074 14.0481 27.6492 15.5933C27.1281 17.0918 26.756 19.0585 26.5327 21.4935H29.2123C31.5197 21.4935 33.3247 22.2193 34.6272 23.671C35.967 25.0758 36.6369 27.1596 36.6369 29.9224C36.6369 31.8891 36.0415 33.7388 34.8505 35.4713C33.6968 37.1571 32.0965 38 30.0496 38C26.849 38 24.5602 36.6888 23.1832 34.0665C21.8062 31.3974 21.1177 27.9088 21.1177 23.6007C21.1177 20.557 21.6387 17.7942 22.6808 15.3124C23.7228 12.7837 24.9882 10.536 26.4769 8.56932C28.0027 6.55576 29.6216 4.84658 31.3336 3.44177C33.0455 2.03697 34.4784 0.88971 35.6321 0L37.6418 4.21442Z" fill="#81C287"/>
</svg>
