<svg width="38" height="38" viewBox="0 0 38 38" fill="none" xmlns="http://www.w3.org/2000/svg">
<path d="M16.524 4.21442C14.7749 5.47874 13.3607 6.57917 12.2814 7.51571C11.2021 8.40542 10.1042 9.59951 8.98774 11.098C7.94568 12.5028 7.14553 13.9778 6.58729 15.5231C6.02904 17.0684 5.63827 19.0585 5.41497 21.4935H8.09455C10.402 21.4935 12.207 22.2193 13.5095 23.671C14.8493 25.0758 15.5192 27.1596 15.5192 29.9224C15.5192 31.8891 14.9237 33.7388 13.7328 35.4713C12.5791 37.1571 10.9788 38 8.93192 38C5.73131 38 3.44251 36.6888 2.06551 34.0665C0.688502 31.3974 0 27.9088 0 23.6007C0 20.557 0.521028 17.7942 1.56309 15.3124C2.60514 12.7837 3.8705 10.536 5.35915 8.56932C6.88502 6.55576 8.50393 4.84658 10.2159 3.44177C11.9278 2.03697 13.3607 0.88971 14.5144 0L16.524 4.21442ZM37.1791 4.21442C35.4299 5.47874 34.0157 6.57917 32.9364 7.51571C31.8572 8.40542 30.7593 9.59951 29.6428 11.098C28.5635 12.5496 27.7448 14.0481 27.1865 15.5933C26.6655 17.0918 26.2933 19.0585 26.07 21.4935H28.7496C31.057 21.4935 32.862 22.2193 34.1646 23.671C35.5044 25.0758 36.1743 27.1596 36.1743 29.9224C36.1743 31.8891 35.5788 33.7388 34.3879 35.4713C33.2342 37.1571 31.6339 38 29.587 38C26.3864 38 24.0976 36.6888 22.7206 34.0665C21.3436 31.3974 20.6551 27.9088 20.6551 23.6007C20.6551 20.557 21.1761 17.7942 22.2181 15.3124C23.2602 12.7837 24.5256 10.536 26.0142 8.56932C27.5401 6.55576 29.159 4.84658 30.8709 3.44177C32.5829 2.03697 34.0157 0.88971 35.1694 0L37.1791 4.21442Z" fill="#9BD1D8"/>
</svg>
